<svg xmlns="http://www.w3.org/2000/svg" viewBox="-14.00 -163.02 1345.44 218.23" role="img" aria-label="Hypercreative">
<g fill="#F7F6F3">
<path transform="translate(0.000,0) scale(0.09766,-0.09766)" d="M152 0V1490H378V860H1117V1490H1343V0H1117V664H378V0Z"/>
<path transform="translate(142.898,0) scale(0.09766,-0.09766)" d="M133 -409 163 -230 227 -234Q274 -242 310.0 -232.5Q346 -223 373.5 -191.5Q401 -160 419 -101L454 0L36 1090H269L485 480Q519 385 544.5 290.5Q570 196 598 102H535Q562 196 589.0 291.0Q616 386 649 480L867 1090H1097L614 -168Q582 -252 535.0 -308.5Q488 -365 424.0 -393.5Q360 -422 278 -422Q234 -422 196.5 -418.0Q159 -414 133 -409Z"/>
<path transform="translate(250.543,0) scale(0.09766,-0.09766)" d="M135 -418V1090H346V922H357Q383 967 425.0 1009.5Q467 1052 530.5 1079.5Q594 1107 682 1107Q818 1107 922.0 1038.5Q1026 970 1085.0 843.5Q1144 717 1144 544Q1144 371 1085.5 244.0Q1027 117 923.0 47.5Q819 -22 682 -22Q595 -22 532.5 6.0Q470 34 428.0 77.5Q386 121 359 168H351V-418ZM635 163Q727 163 791.5 211.0Q856 259 890.5 344.5Q925 430 925 545Q925 659 890.5 744.0Q856 829 791.5 876.0Q727 923 635 923Q543 923 477.5 876.0Q412 829 377.5 744.0Q343 659 343 545Q343 431 377.5 345.0Q412 259 478.0 211.0Q544 163 635 163Z"/>
<path transform="translate(367.465,0) scale(0.09766,-0.09766)" d="M603 -24Q442 -24 325.5 47.5Q209 119 146.0 246.0Q83 373 83 540Q83 707 146.5 835.5Q210 964 323.5 1036.5Q437 1109 588 1109Q691 1109 781.0 1074.0Q871 1039 939.0 969.0Q1007 899 1045.5 794.5Q1084 690 1084 552V483H194V645H972L874 593Q874 694 840.5 769.5Q807 845 743.5 887.5Q680 930 589 930Q498 930 433.0 887.0Q368 844 333.0 771.0Q298 698 298 606V504Q298 396 335.5 317.5Q373 239 442.0 197.5Q511 156 606 156Q671 156 722.5 175.0Q774 194 809.5 231.0Q845 268 863 319L1068 292Q1044 198 979.5 127.0Q915 56 819.0 16.0Q723 -24 603 -24Z"/>
<path transform="translate(478.137,0) scale(0.09766,-0.09766)" d="M135 0V1090H343V915H352Q382 1004 452.5 1054.5Q523 1105 622 1105Q645 1105 669.0 1103.5Q693 1102 708 1100V896Q696 899 663.5 903.0Q631 907 595 907Q526 907 470.5 877.0Q415 847 383.0 790.5Q351 734 351 654V0Z"/>
<path transform="translate(548.281,0) scale(0.09766,-0.09766)" d="M597 -24Q443 -24 327.5 47.5Q212 119 147.5 246.5Q83 374 83 541Q83 710 147.5 838.0Q212 966 327.5 1037.5Q443 1109 597 1109Q687 1109 765.0 1083.5Q843 1058 904.0 1011.5Q965 965 1005.5 900.0Q1046 835 1062 755L853 727Q843 771 821.5 807.0Q800 843 768.0 869.5Q736 896 693.5 910.5Q651 925 598 925Q501 925 435.5 875.0Q370 825 336.5 738.5Q303 652 303 541Q303 432 336.5 346.0Q370 260 435.5 210.5Q501 161 598 161Q651 161 693.5 175.0Q736 189 768.0 216.0Q800 243 822.0 280.5Q844 318 854 364L1064 336Q1049 255 1008.5 189.0Q968 123 906.5 75.5Q845 28 766.5 2.0Q688 -24 597 -24Z"/>
<path transform="translate(656.805,0) scale(0.09766,-0.09766)" d="M135 0V1090H343V915H352Q382 1004 452.5 1054.5Q523 1105 622 1105Q645 1105 669.0 1103.5Q693 1102 708 1100V896Q696 899 663.5 903.0Q631 907 595 907Q526 907 470.5 877.0Q415 847 383.0 790.5Q351 734 351 654V0Z"/>
<path transform="translate(726.949,0) scale(0.09766,-0.09766)" d="M603 -24Q442 -24 325.5 47.5Q209 119 146.0 246.0Q83 373 83 540Q83 707 146.5 835.5Q210 964 323.5 1036.5Q437 1109 588 1109Q691 1109 781.0 1074.0Q871 1039 939.0 969.0Q1007 899 1045.5 794.5Q1084 690 1084 552V483H194V645H972L874 593Q874 694 840.5 769.5Q807 845 743.5 887.5Q680 930 589 930Q498 930 433.0 887.0Q368 844 333.0 771.0Q298 698 298 606V504Q298 396 335.5 317.5Q373 239 442.0 197.5Q511 156 606 156Q671 156 722.5 175.0Q774 194 809.5 231.0Q845 268 863 319L1068 292Q1044 198 979.5 127.0Q915 56 819.0 16.0Q723 -24 603 -24Z"/>
<path transform="translate(837.621,0) scale(0.09766,-0.09766)" d="M452 -21Q346 -21 262.0 16.5Q178 54 128.5 128.0Q79 202 79 310Q79 403 115.0 462.5Q151 522 211.5 557.0Q272 592 348.0 609.5Q424 627 504 637Q603 649 663.0 656.5Q723 664 750.5 681.0Q778 698 778 737V744Q778 802 753.5 843.5Q729 885 681.0 908.0Q633 931 564 931Q494 931 442.0 908.5Q390 886 358.0 850.0Q326 814 316 771L108 800Q132 901 196.5 969.0Q261 1037 355.5 1072.0Q450 1107 563 1107Q644 1107 721.0 1087.0Q798 1067 859.0 1023.5Q920 980 956.5 908.5Q993 837 993 734V0H782V152H774Q752 109 711.5 69.0Q671 29 607.0 4.0Q543 -21 452 -21ZM498 152Q590 152 652.5 186.5Q715 221 747.0 277.5Q779 334 779 399V534Q767 524 737.5 515.0Q708 506 668.5 499.0Q629 492 588.5 486.0Q548 480 516 476Q456 468 405.0 449.5Q354 431 323.5 396.5Q293 362 293 306Q293 257 319.0 222.5Q345 188 391.0 170.0Q437 152 498 152Z"/>
<path transform="translate(944.777,0) scale(0.09766,-0.09766)" d="M627 1090V914H18V1090ZM192 1366H408V292Q408 229 434.5 201.0Q461 173 525 173Q545 173 573.5 175.0Q602 177 623 180L644 4Q613 -2 574.5 -5.0Q536 -8 500 -8Q349 -8 270.5 63.0Q192 134 192 270Z"/>
<path transform="translate(1008.965,0) scale(0.09766,-0.09766)" d="M135 0V1090H351V0ZM244 1266Q187 1266 147.5 1304.0Q108 1342 108 1396Q108 1451 147.5 1488.5Q187 1526 243 1526Q301 1526 340.5 1488.5Q380 1451 380 1396Q380 1342 340.0 1304.0Q300 1266 244 1266Z"/>
<path transform="translate(1053.426,0) scale(0.09766,-0.09766)" d="M450 0 36 1090H269L485 480Q519 385 545.0 290.5Q571 196 598 102H539Q567 196 592.5 290.5Q618 385 651 480L866 1090H1096L682 0Z"/>
<path transform="translate(1160.973,0) scale(0.09766,-0.09766)" d="M603 -24Q442 -24 325.5 47.5Q209 119 146.0 246.0Q83 373 83 540Q83 707 146.5 835.5Q210 964 323.5 1036.5Q437 1109 588 1109Q691 1109 781.0 1074.0Q871 1039 939.0 969.0Q1007 899 1045.5 794.5Q1084 690 1084 552V483H194V645H972L874 593Q874 694 840.5 769.5Q807 845 743.5 887.5Q680 930 589 930Q498 930 433.0 887.0Q368 844 333.0 771.0Q298 698 298 606V504Q298 396 335.5 317.5Q373 239 442.0 197.5Q511 156 606 156Q671 156 722.5 175.0Q774 194 809.5 231.0Q845 268 863 319L1068 292Q1044 198 979.5 127.0Q915 56 819.0 16.0Q723 -24 603 -24Z"/>
</g>
<circle cx="1301.04" cy="-16.40" r="16.40" fill="#E0463C"/>
</svg>