<svg xmlns="http://www.w3.org/2000/svg" viewBox="0 0 651 253" width="651" height="253" role="img" aria-label="Loam, a Hypercreative tool">
  <g transform="translate(26.00,171.40) scale(0.09766,-0.09766)" fill="#13130F">
<path transform="translate(0.00,0)" d="M147 0V1490H414V225H1076V0Z"/>
<path transform="translate(1072.08,0)" d="M619 -23Q457 -23 337.0 49.0Q217 121 151.5 250.0Q86 379 86 550Q86 723 151.5 852.5Q217 982 337.0 1054.0Q457 1126 619 1126Q781 1126 901.0 1054.0Q1021 982 1086.5 852.5Q1152 723 1152 550Q1152 379 1086.5 250.0Q1021 121 901.0 49.0Q781 -23 619 -23ZM619 188Q709 188 769.0 236.5Q829 285 859.0 367.0Q889 449 889 551Q889 654 859.0 736.5Q829 819 769.0 867.0Q709 915 619 915Q529 915 469.5 867.0Q410 819 380.0 737.0Q350 655 350 551Q350 449 380.0 367.0Q410 285 469.5 236.5Q529 188 619 188Z"/>
<path transform="translate(2228.16,0)" d="M449 -22Q342 -22 257.5 16.0Q173 54 124.0 128.5Q75 203 75 313Q75 407 110.0 468.5Q145 530 205.5 566.5Q266 603 342.0 622.0Q418 641 500 650Q598 661 658.0 669.0Q718 677 746.5 694.5Q775 712 775 750V755Q775 810 752.5 847.5Q730 885 686.5 905.5Q643 926 580 926Q515 926 467.5 906.0Q420 886 390.5 854.0Q361 822 348 784L107 828Q137 927 204.5 993.0Q272 1059 368.5 1092.5Q465 1126 579 1126Q661 1126 741.5 1106.5Q822 1087 888.0 1043.0Q954 999 993.5 926.0Q1033 853 1033 744V0H785V154H775Q751 106 707.5 66.0Q664 26 600.0 2.0Q536 -22 449 -22ZM515 170Q596 170 654.0 201.5Q712 233 744.0 285.5Q776 338 776 400V530Q763 520 734.0 511.5Q705 503 668.0 496.0Q631 489 594.5 484.0Q558 479 531 475Q473 468 426.5 449.5Q380 431 353.0 399.0Q326 367 326 316Q326 268 350.5 235.5Q375 203 417.5 186.5Q460 170 515 170Z"/>
<path transform="translate(3314.24,0)" d="M135 0V1111H379L388 847H369Q394 944 444.5 1006.5Q495 1069 562.5 1099.0Q630 1129 703 1129Q824 1129 900.5 1054.0Q977 979 1006 835H975Q998 932 1053.0 997.5Q1108 1063 1184.0 1096.0Q1260 1129 1347 1129Q1447 1129 1527.5 1085.5Q1608 1042 1655.0 957.0Q1702 872 1702 748V0H1442V708Q1442 812 1385.5 860.5Q1329 909 1249 909Q1186 909 1140.0 881.5Q1094 854 1069.5 806.5Q1045 759 1045 696V0H792V720Q792 806 739.0 857.5Q686 909 603 909Q546 909 498.5 882.5Q451 856 422.5 805.0Q394 754 394 679V0Z"/>
  </g>
  <circle cx="583.05" cy="129.40" r="42.00" fill="#E0463C"/>
  <g transform="translate(26.00,227.40) scale(0.01465,-0.01465)" fill="#9A988F">
<path transform="translate(0.00,0)" d="M36 0 571 1490H845L1384 0H1139L851 834Q816 938 775.5 1070.5Q735 1203 680 1393H734Q680 1202 639.5 1068.5Q599 935 565 834L278 0ZM329 390V580H1091V390Z"/>
<path transform="translate(2840.12,0)" d="M152 0V1490H378V860H1117V1490H1343V0H1117V664H378V0Z"/>
<path transform="translate(4784.68,0)" d="M585 0V594L36 1490H297L579 1017Q623 943 660.5 873.0Q698 803 736 713H663Q700 804 737.0 874.5Q774 945 817 1017L1095 1490H1356L809 594V0Z"/>
<path transform="translate(6626.24,0)" d="M152 0V1490H694Q861 1490 976.5 1429.5Q1092 1369 1151.5 1262.0Q1211 1155 1211 1015Q1211 875 1150.5 768.0Q1090 661 973.5 600.0Q857 539 690 539H297V732H676Q780 732 848.5 767.5Q917 803 951.5 867.0Q986 931 986 1015Q986 1099 951.5 1162.0Q917 1225 848.0 1260.5Q779 1296 675 1296H378V0Z"/>
<path transform="translate(8369.80,0)" d="M152 0V1490H1118V1294H378V852H1065V659H378V196H1122V0Z"/>
<path transform="translate(10042.36,0)" d="M152 0V1490H701Q868 1490 983.5 1431.5Q1099 1373 1158.5 1268.0Q1218 1163 1218 1024Q1218 884 1156.5 780.5Q1095 677 977.5 620.0Q860 563 693 563H282V755H683Q787 755 855.5 787.5Q924 820 958.5 880.0Q993 940 993 1024Q993 1108 958.5 1169.0Q924 1230 855.0 1263.0Q786 1296 682 1296H378V0ZM1004 0 647 672H896L1260 0Z"/>
<path transform="translate(11810.92,0)" d="M781 -22Q582 -22 428.0 72.0Q274 166 186.5 338.0Q99 510 99 744Q99 979 186.5 1151.5Q274 1324 428.0 1418.0Q582 1512 781 1512Q900 1512 1004.5 1477.0Q1109 1442 1191.5 1375.5Q1274 1309 1328.0 1214.5Q1382 1120 1401 1001H1173Q1158 1075 1122.5 1131.5Q1087 1188 1035.5 1227.5Q984 1267 919.5 1286.5Q855 1306 782 1306Q646 1306 542.5 1238.5Q439 1171 381.5 1045.0Q324 919 324 744Q324 569 382.0 443.5Q440 318 543.0 251.0Q646 184 782 184Q855 184 919.0 204.0Q983 224 1034.5 262.5Q1086 301 1122.0 358.0Q1158 415 1173 488H1401Q1383 374 1330.0 280.5Q1277 187 1195.0 119.0Q1113 51 1008.0 14.5Q903 -22 781 -22Z"/>
<path transform="translate(13754.48,0)" d="M152 0V1490H701Q868 1490 983.5 1431.5Q1099 1373 1158.5 1268.0Q1218 1163 1218 1024Q1218 884 1156.5 780.5Q1095 677 977.5 620.0Q860 563 693 563H282V755H683Q787 755 855.5 787.5Q924 820 958.5 880.0Q993 940 993 1024Q993 1108 958.5 1169.0Q924 1230 855.0 1263.0Q786 1296 682 1296H378V0ZM1004 0 647 672H896L1260 0Z"/>
<path transform="translate(15523.04,0)" d="M152 0V1490H1118V1294H378V852H1065V659H378V196H1122V0Z"/>
<path transform="translate(17195.60,0)" d="M36 0 571 1490H845L1384 0H1139L851 834Q816 938 775.5 1070.5Q735 1203 680 1393H734Q680 1202 639.5 1068.5Q599 935 565 834L278 0ZM329 390V580H1091V390Z"/>
<path transform="translate(19065.16,0)" d="M72 1294V1490H1234V1294H767V0H541V1294Z"/>
<path transform="translate(20821.72,0)" d="M378 1490V0H152V1490Z"/>
<path transform="translate(21802.28,0)" d="M576 0 36 1490H278L570 656Q602 561 644.0 424.0Q686 287 742 99H688Q742 289 783.5 425.0Q825 561 856 656L1140 1490H1381L849 0Z"/>
<path transform="translate(23669.84,0)" d="M152 0V1490H1118V1294H378V852H1065V659H378V196H1122V0Z"/>
<path transform="translate(25342.40,0)" d="M849 954 619 1490H723L878 1109L1033 1490H1136L908 954ZM595 954V1490H701V954ZM1055 954V1490H1162V954ZM231 954V1442H339V954ZM69 1398V1490H501V1398Z"/>
<path transform="translate(28006.52,0)" d="M72 1294V1490H1234V1294H767V0H541V1294Z"/>
<path transform="translate(29763.08,0)" d="M777 -22Q582 -22 428.5 72.5Q275 167 187.0 339.0Q99 511 99 744Q99 979 187.0 1151.0Q275 1323 428.5 1417.5Q582 1512 777 1512Q973 1512 1126.0 1417.5Q1279 1323 1367.0 1151.0Q1455 979 1455 744Q1455 511 1367.0 338.5Q1279 166 1126.0 72.0Q973 -22 777 -22ZM777 184Q905 184 1007.5 248.5Q1110 313 1170.0 438.5Q1230 564 1230 744Q1230 926 1170.0 1051.5Q1110 1177 1007.5 1241.5Q905 1306 777 1306Q649 1306 546.5 1241.5Q444 1177 384.0 1051.0Q324 925 324 744Q324 564 384.0 438.5Q444 313 546.5 248.5Q649 184 777 184Z"/>
<path transform="translate(31766.64,0)" d="M777 -22Q582 -22 428.5 72.5Q275 167 187.0 339.0Q99 511 99 744Q99 979 187.0 1151.0Q275 1323 428.5 1417.5Q582 1512 777 1512Q973 1512 1126.0 1417.5Q1279 1323 1367.0 1151.0Q1455 979 1455 744Q1455 511 1367.0 338.5Q1279 166 1126.0 72.0Q973 -22 777 -22ZM777 184Q905 184 1007.5 248.5Q1110 313 1170.0 438.5Q1230 564 1230 744Q1230 926 1170.0 1051.5Q1110 1177 1007.5 1241.5Q905 1306 777 1306Q649 1306 546.5 1241.5Q444 1177 384.0 1051.0Q324 925 324 744Q324 564 384.0 438.5Q444 313 546.5 248.5Q649 184 777 184Z"/>
<path transform="translate(33770.20,0)" d="M152 0V1490H378V196H1065V0Z"/>
  </g>
</svg>
