<svg xmlns="http://www.w3.org/2000/svg" viewBox="0 0 651 197" width="651" height="197" role="img" aria-label="Loam">
  <g transform="translate(26.00,171.40) scale(0.09766,-0.09766)" fill="#F4F1EA">
<path transform="translate(0.00,0)" d="M147 0V1490H414V225H1076V0Z"/>
<path transform="translate(1072.08,0)" d="M619 -23Q457 -23 337.0 49.0Q217 121 151.5 250.0Q86 379 86 550Q86 723 151.5 852.5Q217 982 337.0 1054.0Q457 1126 619 1126Q781 1126 901.0 1054.0Q1021 982 1086.5 852.5Q1152 723 1152 550Q1152 379 1086.5 250.0Q1021 121 901.0 49.0Q781 -23 619 -23ZM619 188Q709 188 769.0 236.5Q829 285 859.0 367.0Q889 449 889 551Q889 654 859.0 736.5Q829 819 769.0 867.0Q709 915 619 915Q529 915 469.5 867.0Q410 819 380.0 737.0Q350 655 350 551Q350 449 380.0 367.0Q410 285 469.5 236.5Q529 188 619 188Z"/>
<path transform="translate(2228.16,0)" d="M449 -22Q342 -22 257.5 16.0Q173 54 124.0 128.5Q75 203 75 313Q75 407 110.0 468.5Q145 530 205.5 566.5Q266 603 342.0 622.0Q418 641 500 650Q598 661 658.0 669.0Q718 677 746.5 694.5Q775 712 775 750V755Q775 810 752.5 847.5Q730 885 686.5 905.5Q643 926 580 926Q515 926 467.5 906.0Q420 886 390.5 854.0Q361 822 348 784L107 828Q137 927 204.5 993.0Q272 1059 368.5 1092.5Q465 1126 579 1126Q661 1126 741.5 1106.5Q822 1087 888.0 1043.0Q954 999 993.5 926.0Q1033 853 1033 744V0H785V154H775Q751 106 707.5 66.0Q664 26 600.0 2.0Q536 -22 449 -22ZM515 170Q596 170 654.0 201.5Q712 233 744.0 285.5Q776 338 776 400V530Q763 520 734.0 511.5Q705 503 668.0 496.0Q631 489 594.5 484.0Q558 479 531 475Q473 468 426.5 449.5Q380 431 353.0 399.0Q326 367 326 316Q326 268 350.5 235.5Q375 203 417.5 186.5Q460 170 515 170Z"/>
<path transform="translate(3314.24,0)" d="M135 0V1111H379L388 847H369Q394 944 444.5 1006.5Q495 1069 562.5 1099.0Q630 1129 703 1129Q824 1129 900.5 1054.0Q977 979 1006 835H975Q998 932 1053.0 997.5Q1108 1063 1184.0 1096.0Q1260 1129 1347 1129Q1447 1129 1527.5 1085.5Q1608 1042 1655.0 957.0Q1702 872 1702 748V0H1442V708Q1442 812 1385.5 860.5Q1329 909 1249 909Q1186 909 1140.0 881.5Q1094 854 1069.5 806.5Q1045 759 1045 696V0H792V720Q792 806 739.0 857.5Q686 909 603 909Q546 909 498.5 882.5Q451 856 422.5 805.0Q394 754 394 679V0Z"/>
  </g>
  <circle cx="583.05" cy="129.40" r="42.00" fill="#E0463C"/>
</svg>
